<?xml version="1.0" standalone="no"?><!DOCTYPE svg PUBLIC "-//W3C//DTD SVG 1.1//EN" "http://www.w3.org/Graphics/SVG/1.1/DTD/svg11.dtd"><svg t="1543977549896" class="icon" style="" viewBox="0 0 1024 1024" version="1.1" xmlns="http://www.w3.org/2000/svg" p-id="1935" xmlns:xlink="http://www.w3.org/1999/xlink" width="200" height="200"><defs><style type="text/css"></style></defs><path d="M190.171429 327.68v365.714286l196.022857 114.102857v-225.28l-96.548572-58.514286v-140.434286l225.28 128.731429v512L70.217143 763.611429V254.537143l119.954286 73.142857z" fill="#055A90" p-id="1936"></path><path d="M512 0v128.731429l330.605714 187.245714v514.925714l111.177143-64.365714V254.537143L512 0z" fill="#5FBDF9" p-id="1937"></path><path d="M190.171429 327.68l321.828571-198.948571V0L70.217143 254.537143l119.954286 73.142857z" fill="#1FA0F2" p-id="1938"></path><path d="M342.308571 354.011429l93.622858-55.588572 234.057142 131.657143v500.297143l-111.177142 67.291428V482.742857l-216.502858-128.731428z" fill="#0D84D0" p-id="1939"></path><path d="M482.742857 272.091429l96.548572-58.514286 228.205714 131.657143v509.074285l-99.474286 55.588572V400.822857l-225.28-128.731428z" fill="#1FA0F2" p-id="1940"></path></svg>